<?xml version="1.0" ?><svg enable-background="new 0 0 64 64" version="1.1" viewBox="0 0 64 64" xml:space="preserve" xmlns="http://www.w3.org/2000/svg" xmlns:xlink="http://www.w3.org/1999/xlink"><g id="Layer_1"/><g id="Layer_2"><g><path d="M50.075,33.34c-0.685-0.685-1.534-1.109-2.422-1.273l0.037-0.037c0.876-0.864,1.358-2.022,1.358-3.262    c0-1.24-0.482-2.399-1.351-3.254c-0.669-0.674-1.507-1.115-2.418-1.284l0.035-0.035c0.872-0.872,1.353-2.032,1.353-3.267    c0-1.241-0.482-2.399-1.353-3.258c-0.685-0.684-1.536-1.106-2.428-1.268l0.048-0.048c0.879-0.879,1.363-2.036,1.363-3.257    c0-1.24-0.486-2.402-1.363-3.268c-0.871-0.871-2.027-1.351-3.257-1.351c-1.23,0-2.387,0.479-3.257,1.351l-3.944,3.942    l-2.047-2.047c-0.882-0.87-2.037-1.349-3.252-1.349c-1.234,0-2.395,0.48-3.268,1.354c-0.871,0.871-1.351,2.029-1.351,3.262    c0,1.233,0.479,2.392,1.351,3.262l0.892,0.893c0.195,0.195,0.451,0.293,0.707,0.293s0.512-0.098,0.707-0.293    c0.391-0.39,0.391-1.023,0-1.414l-0.892-0.893c-0.493-0.493-0.765-1.148-0.765-1.848c0-0.698,0.271-1.354,0.765-1.848    c0.979-0.981,2.686-0.997,3.696,0l2.042,2.042l-13.97,13.963c-0.392,0.391-0.392,1.023-0.002,1.414    c0.391,0.393,1.025,0.391,1.414,0.002l14.674-14.666c0.002-0.002,0.005-0.003,0.007-0.005s0.003-0.005,0.005-0.007l4.646-4.643    c0.986-0.986,2.694-0.991,3.69,0.005c0.498,0.491,0.772,1.147,0.772,1.849c0,0.687-0.276,1.342-0.777,1.843l-2.71,2.71    c-0.389,0.389-0.391,1.02-0.004,1.41c0.386,0.393,1.017,0.396,1.41,0.012c1.021-1.002,2.673-0.996,3.688,0.017    c0.491,0.484,0.762,1.138,0.762,1.839c0,0.7-0.272,1.358-0.767,1.853l-2.707,2.708c-0.009,0.009-0.017,0.017-0.025,0.025    c-0.389,0.392-0.387,1.023,0.004,1.413c0.392,0.39,1.023,0.388,1.413-0.002l0.019-0.019c0.491-0.486,1.139-0.754,1.828-0.754    c0,0,0,0,0.001,0c0.696,0,1.353,0.273,1.853,0.778c0.492,0.483,0.763,1.136,0.763,1.837c0,0.7-0.271,1.353-0.768,1.843l-2.71,2.71    c-0.39,0.39-0.391,1.022-0.001,1.413c0.389,0.391,1.021,0.392,1.412,0.004c1.014-1.006,2.663-0.999,3.679,0.017    c0.487,0.488,0.768,1.163,0.768,1.854c0,0.684-0.28,1.354-0.769,1.844l-2.58,2.59c-0.391,0.392-0.389,1.024,0.002,1.414    c0.195,0.195,0.451,0.292,0.706,0.292c0.257,0,0.513-0.098,0.708-0.294l2.579-2.589c0.86-0.86,1.354-2.047,1.354-3.257    C51.429,35.373,50.948,34.213,50.075,33.34z"/><path d="M43.724,43.394l-6.193,6.187c-1.622,1.622-3.637,2.807-5.827,3.426c-4.686,1.341-9.747,0.025-13.197-3.425    c-4.422-4.43-5.19-11.471-1.829-16.741c0.297-0.466,0.16-1.084-0.305-1.381c-0.467-0.297-1.084-0.159-1.381,0.305    c-3.862,6.055-2.979,14.143,2.1,19.23c2.938,2.938,6.89,4.527,10.932,4.527c1.411,0,2.834-0.193,4.228-0.592    c2.517-0.711,4.831-2.072,6.694-3.935l6.193-6.186c0.391-0.391,0.391-1.023,0.001-1.415    C44.749,43.004,44.115,43.005,43.724,43.394z"/><path d="M31.108,44.478c0.546,0,1.092-0.207,1.507-0.623l6.07-6.07c0.847-0.847,1.313-1.968,1.313-3.157    c0-0.313-0.033-0.627-0.1-0.959c-0.01-0.048-0.023-0.095-0.041-0.141c-0.199-0.79-0.604-1.501-1.172-2.057    c-0.476-0.477-1.027-0.825-1.633-1.036c-0.001,0-0.001,0-0.002-0.001c-0.001,0-0.002-0.001-0.003-0.001    c-0.002-0.001-0.004-0.001-0.006-0.001c-0.178-0.063-0.355-0.114-0.517-0.149c-0.003-0.001-0.005-0.001-0.008-0.001    c-0.002,0-0.004-0.001-0.006-0.002c-0.002,0-0.004,0-0.006,0c-1.49-0.335-3.033,0.104-4.134,1.192l-1.17,1.17    c-0.049,0.049-0.137,0.049-0.186,0l-1.169-1.17c-0.833-0.834-1.937-1.301-3.158-1.313c-1.299,0-2.492,0.538-3.362,1.521    c-1.546,1.763-1.417,4.484,0.295,6.196l5.98,5.98C30.016,44.27,30.562,44.478,31.108,44.478z M24.826,33    c0.482-0.543,1.144-0.843,1.892-0.843c0.644,0.007,1.252,0.266,1.714,0.728l1.17,1.17c0.83,0.832,2.184,0.832,3.014,0l1.166-1.166    c0.146-0.144,0.307-0.265,0.477-0.367c0.05-0.03,0.105-0.048,0.157-0.075c0.125-0.063,0.252-0.124,0.385-0.165    c0.06-0.019,0.123-0.027,0.185-0.041c0.131-0.029,0.263-0.053,0.398-0.061c0.069-0.004,0.137,0,0.206,0.002    c0.085,0.002,0.17,0.015,0.255,0.026l0.028,0.027c0.112,0.109,0.246,0.177,0.386,0.222c0.043,0.014,0.086,0.017,0.13,0.025    c0.06,0.011,0.118,0.034,0.179,0.034c0.042,0,0.083-0.018,0.125-0.023c0.018-0.002,0.037,0.005,0.055,0.002    c0.019,0.011,0.04,0.017,0.059,0.029c0.165,0.101,0.323,0.219,0.471,0.366c0.325,0.318,0.552,0.729,0.654,1.186    c0.007,0.028,0.015,0.057,0.023,0.084c0.028,0.163,0.042,0.316,0.042,0.466c0,0.655-0.258,1.274-0.727,1.743l-6.07,6.07    c-0.049,0.049-0.137,0.049-0.186,0l-5.98-5.98C24.066,35.491,23.976,33.97,24.826,33z"/></g></g></svg>